<svg xmlns="http://www.w3.org/2000/svg" viewBox="0 0 257 138" width="257" height="138">
	<style>
		tspan { white-space:pre }
		.shp0 { fill: #ffc815 }
		.shp1 { fill: #a3cd3b }
		.shp2 { fill: #0093d7 }
		.shp3 { fill: #3e3d40 }
	</style>
	<g id="3">
		<g id="Meter">
			<path id="Shape 2" class="shp0" d="M1.99 128.9C1.99 88.41 21.25 52.4 51.16 29.26L86.01 71.61C67.35 86.25 57.58 103.56 57.58 128.9L1.99 128.9Z" />
			<path id="Shape 3" class="shp1" d="M57.12 24.96C77.7 10.5 102.86 1.96 130.04 1.96C157.25 1.96 182.41 10.5 202.94 24.96L168.42 68C153.74 58.08 142.13 55.8 130.04 55.8C117.98 55.8 103.85 60.15 91.68 68L57.12 24.96Z" />
			<path id="Shape 4" class="shp2" d="M207.25 29.26C236.37 52.4 255.04 88.41 255.04 128.9L201.05 128.9C201.05 103.56 190.66 85.5 173.57 71.61L207.25 29.26Z" />
			<path id="Shape 5" class="shp3" d="M139.66 130.86C136.85 135.16 131.11 136.28 126.87 133.44L85.83 96L137.15 117.9L137.15 117.9C141.36 120.79 142.5 126.6 139.66 130.86L139.66 130.86Z" />
		</g>
	</g>
</svg>
